<svg width="22" height="22" viewBox="0 0 22 22" fill="none" xmlns="http://www.w3.org/2000/svg">
<path d="M22 13.6472L19.3528 8.35244L16.7055 13.6472H18.4886C17.3661 17.1512 14.0835 19.6981 10.2106 19.6981C5.41462 19.6981 1.51227 15.7959 1.51227 10.9998C1.51227 6.20384 5.41462 2.30149 10.2106 2.30149C13.906 2.30149 17.0631 4.62192 18.3202 7.87985L19.1896 6.14094C17.46 2.95591 14.0843 0.788818 10.2113 0.788818C4.58094 0.788683 0 5.36935 0 10.9998C0 16.6299 4.58094 21.2109 10.2111 21.2109C14.9254 21.2109 18.895 17.997 20.0648 13.6473H22V13.6472Z" fill="#4B4B4B"/>
<path d="M4.78986 13.0372H5.74611L6.03633 11.9912H7.2033L7.51809 13.0372H8.50957L7.24582 8.96167H6.03633L4.78986 13.0372ZM6.41079 10.4371C6.47733 10.201 6.53781 9.89254 6.59842 9.65105H6.6103C6.67091 9.89254 6.74367 10.1959 6.81642 10.4371L7.07047 11.3028H6.16943L6.41079 10.4371Z" fill="#4B4B4B"/>
<path d="M11.0342 9.68141C11.4812 9.68141 11.7592 9.7601 11.983 9.85608L12.1769 9.11824C11.9772 9.02172 11.5719 8.91846 11.0461 8.91846C9.70959 8.91846 8.72431 9.69207 8.71716 11.0471C8.71149 11.6456 8.91694 12.1772 9.2922 12.529C9.6672 12.8918 10.2051 13.0792 10.9494 13.0792C11.4867 13.0792 12.026 12.9462 12.3095 12.8496V10.7029H10.7921V11.4225H11.4218V12.2746C11.3486 12.3116 11.1791 12.3353 10.9675 12.3353C10.2111 12.3353 9.68556 11.8389 9.68556 10.9983C9.68556 10.1163 10.2655 9.68141 11.0342 9.68141Z" fill="#4B4B4B"/>
<path d="M15.5471 9.71806V8.9624H13.0315V13.0373H15.632V12.2823H13.9568V11.3147H15.4569V10.5642H13.9568V9.71806H15.5471Z" fill="#4B4B4B"/>
</svg>
