<svg width="19" height="19" viewBox="0 0 19 19" fill="none" xmlns="http://www.w3.org/2000/svg">
<path d="M12.616 14.704C13.072 16.024 13.216 16.696 13.048 17.224C12.904 17.704 12.304 17.8 11.392 17.848C11.248 17.848 11.2 17.896 11.2 18.16C11.2 18.424 11.224 18.472 11.392 18.472C12.424 18.448 13.84 18.424 14.776 18.424C15.808 18.424 17.152 18.448 18.184 18.472C18.448 18.472 18.496 18.424 18.496 18.16C18.496 17.896 18.448 17.848 18.184 17.848C17.272 17.776 17.032 17.728 16.624 17.224C16.24 16.744 15.904 15.904 15.424 14.488L12.712 6.664C11.632 3.52 11.2 2.32 10.72 0.831999C10.672 0.663999 10.576 0.615999 10.408 0.615999L8.512 1.48C8.128 2.752 7.912 3.496 6.784 6.52L3.904 14.296C3.376 15.736 2.92 16.624 2.44 17.104C2.08 17.44 1.672 17.752 1.024 17.848C0.808 17.848 0.76 17.896 0.76 18.16C0.76 18.424 0.808 18.472 1.024 18.472C1.816 18.424 2.704 18.424 3.544 18.424C4.432 18.424 5.656 18.424 6.544 18.472C6.736 18.472 6.808 18.424 6.808 18.16C6.808 17.896 6.736 17.848 6.592 17.848C5.728 17.752 4.936 17.584 4.72 17.08C4.504 16.528 4.456 15.808 4.984 14.392L5.896 11.872C6.904 11.824 7.864 11.776 8.872 11.776C9.784 11.776 10.816 11.824 11.608 11.872L12.616 14.704ZM11.272 10.912C10.576 10.96 9.64 10.96 8.872 10.96C7.96 10.96 7 10.96 6.208 10.912L7.744 6.664C8.296 5.128 8.488 4.504 8.824 3.568C9.088 4.432 9.28 5.128 9.832 6.712L11.272 10.912Z" fill="#A08A60"/>
</svg>
