<svg width="44" height="20" viewBox="0 0 44 20" fill="none" xmlns="http://www.w3.org/2000/svg">
<g opacity="0.7">
<path d="M43 0.179688H1C0.447715 0.179688 0 0.627402 0 1.17969V2.46834C0 3.02063 0.447716 3.46834 1 3.46834H22H43C43.5523 3.46834 44 3.02063 44 2.46834V1.17969C44 0.627403 43.5523 0.179688 43 0.179688Z" fill="#A08A60"/>
<path d="M43 16.623H1C0.447715 16.623 0 17.0708 0 17.623V18.9117C0 19.464 0.447714 19.9117 0.999999 19.9117H43C43.5523 19.9117 44 19.464 44 18.9117V17.623C44 17.0708 43.5523 16.623 43 16.623Z" fill="#A08A60"/>
</g>
</svg>
