<svg width="19" height="24" viewBox="0 0 19 24" fill="none" xmlns="http://www.w3.org/2000/svg">
<path d="M14.9486 17.4982C14.0677 15.8583 13.9006 13.9282 14.4866 12.1613L15.6296 8.7315L16.7996 7.95C17.932 7.19602 18.325 5.7165 17.7161 4.5L17.4274 3.92325C16.8194 2.70469 16.5018 1.36186 16.4996 0H14.9996C15.0015 1.596 15.3729 3.16988 16.0849 4.59825L16.3736 5.17425C16.4562 5.34042 16.4994 5.52342 16.4996 5.709C16.5003 6.10866 16.3006 6.48206 15.9679 6.7035L14.7746 7.5H3.22465L2.0314 6.7035C1.69868 6.48206 1.49904 6.10866 1.49965 5.709C1.50002 5.5237 1.54315 5.34094 1.62565 5.175L1.9144 4.599C2.62647 3.17039 2.99791 1.59623 2.99965 0H1.49965C1.49829 1.36303 1.18094 2.70722 0.572645 3.927L0.283896 4.50375C-0.322479 5.71917 0.0699113 7.19592 1.19965 7.95L2.36965 8.73L3.51265 12.1597C4.09868 13.9267 3.93157 15.8568 3.05065 17.4967L1.31365 20.7218L1.26265 20.8403C0.92252 21.859 0.74927 22.926 0.749645 24H2.24965C2.2496 23.1086 2.39004 22.2227 2.6659 21.375L4.3714 18.21C5.44797 16.2049 5.65221 13.8452 4.93615 11.685L4.04065 9H13.9586L13.0631 11.6865C12.3471 13.8467 12.5513 16.2064 13.6279 18.2115L15.3334 21.375C15.6093 22.2227 15.7497 23.1086 15.7496 24H17.2496C17.2501 22.9257 17.0769 21.8585 16.7366 20.8395L14.9486 17.4982Z" fill="#4B4B4B"/>
<path d="M8.99987 6C11.4841 5.99752 13.4974 3.98423 13.4999 1.5V0H11.9999V1.5C11.9999 3.15684 10.6567 4.5 8.99987 4.5C7.34303 4.5 5.99988 3.15684 5.99988 1.5V0H4.49988V1.5C4.50236 3.98423 6.51559 5.99752 8.99987 6Z" fill="#4B4B4B"/>
<path d="M9.74986 16.5H8.24988V18H9.74986V16.5Z" fill="#4B4B4B"/>
</svg>
