<svg width="82" height="11" viewBox="0 0 82 11" fill="none" xmlns="http://www.w3.org/2000/svg">
<path d="M59.3276 5.18147L59.2539 5.14622L59.1986 5.12859C59.1617 5.11097 59.1065 5.09334 59.0696 5.09334C58.9775 5.07572 58.8854 5.04047 58.8117 5.04047C58.6274 5.00522 58.4616 5.02285 58.2773 5.04047C57.9273 5.07572 57.5956 5.26959 57.3193 5.51633C57.0429 5.7807 56.8402 6.09794 56.7297 6.46805C56.6007 6.82054 56.5638 7.20828 56.6191 7.57839C56.6744 7.9485 56.8218 8.30099 57.0613 8.58298C57.3008 8.8826 57.6325 9.11171 57.9825 9.27034C58.351 9.42896 58.7564 9.5347 59.1617 9.6052C59.3644 9.64045 59.5855 9.65807 59.7882 9.65807C59.9909 9.65807 60.1935 9.65807 60.4146 9.64045C61.2438 9.56995 62.0545 9.32321 62.8467 8.98834C63.6206 8.65348 64.3576 8.23049 65.0761 7.75463C65.4262 7.52552 65.7763 7.27877 66.1263 7.03203L67.1766 6.2918C67.5266 6.04506 67.8767 5.81595 68.2452 5.5692C68.6137 5.34009 68.9638 5.09334 69.3323 4.86423C70.0693 4.40599 70.8247 3.96538 71.5985 3.56002C72.3724 3.15466 73.1831 2.78454 74.0306 2.48493C74.8782 2.18531 75.7626 1.95619 76.6654 1.90332C76.7759 1.90332 76.8865 1.90332 77.0154 1.90332C77.0707 1.90332 77.126 1.90332 77.1813 1.90332H77.3471C77.5682 1.92094 77.7893 1.93857 78.0288 1.95619C78.471 2.00907 78.9316 2.11481 79.3554 2.25581C79.7792 2.41443 80.203 2.6083 80.5714 2.87266C80.9399 3.13703 81.2532 3.4719 81.4927 3.85963C81.7322 4.24737 81.8796 4.67036 81.9533 5.11097C82.0086 5.55158 81.9902 6.00981 81.8796 6.4328C81.6585 7.2964 81.1426 8.10712 80.4056 8.6711C80.0371 8.95309 79.6318 9.19984 79.1896 9.37608C78.7474 9.55233 78.2868 9.6757 77.8077 9.74619C77.5129 9.85194 77.255 9.6757 77.1997 9.41133C77.1629 9.14696 77.3471 8.90022 77.6235 8.84735C77.6419 8.84735 77.6787 8.84735 77.6972 8.84735C78.4894 8.84735 79.2817 8.63586 79.945 8.21287C80.6083 7.78988 81.1242 7.12015 81.3453 6.37993C81.5848 5.6397 81.5111 4.79373 81.1058 4.124C80.9031 3.78913 80.6267 3.48952 80.2951 3.2604C79.9634 3.03128 79.5949 2.85504 79.1896 2.73167C78.7842 2.6083 78.3789 2.55542 77.9551 2.52018C77.7524 2.50255 77.5313 2.50255 77.3287 2.50255H77.1813C77.126 2.50255 77.0707 2.50255 77.0154 2.50255C76.9049 2.50255 76.8128 2.52018 76.7022 2.52018C76.2969 2.55542 75.8731 2.64355 75.4862 2.76692C75.0808 2.89029 74.6939 3.03128 74.307 3.1899C73.5332 3.52477 72.7962 3.94776 72.0776 4.38837C71.359 4.82898 70.6404 5.30484 69.9219 5.76307L68.8348 6.46805C68.4663 6.69717 68.1162 6.92629 67.7293 7.1554C67.3608 7.38452 66.9739 7.59601 66.587 7.80751C66.2 8.019 65.8131 8.21287 65.4262 8.40674C64.6708 8.79448 63.8785 9.16459 63.0494 9.49945C62.2203 9.83432 61.3543 10.0987 60.4515 10.1692C59.9909 10.2044 59.5302 10.1868 59.088 10.1163C58.6458 10.0458 58.1852 9.94006 57.7615 9.74619C57.3377 9.55233 56.9508 9.28796 56.6375 8.91785C56.3243 8.56536 56.1216 8.12475 56.0479 7.66651C55.9742 7.20828 56.0111 6.75004 56.1401 6.30943C56.269 5.86882 56.5086 5.46346 56.8402 5.11097C57.1719 4.75848 57.6141 4.49411 58.1115 4.37074C58.3695 4.31787 58.6274 4.30024 58.8854 4.31787C59.0143 4.33549 59.1433 4.35312 59.2723 4.37074C59.3276 4.38837 59.4013 4.40599 59.4565 4.42361L59.5487 4.45886L59.6224 4.49411C59.825 4.56461 59.9356 4.7761 59.8619 4.9876C59.7882 5.18147 59.5671 5.28721 59.346 5.21671C59.346 5.18147 59.346 5.18147 59.3276 5.18147Z" fill="#B28247"/>
<path d="M63.0867 7.98508C63.8053 7.59734 64.4686 7.12149 65.0582 6.61038C65.6662 6.08164 66.2005 5.50004 66.6427 4.84793C66.8638 4.53069 67.0665 4.1782 67.2323 3.84334C67.3981 3.49085 67.5271 3.13836 67.6376 2.76825C67.8403 2.02802 67.914 1.27017 67.8403 0.529945C67.8219 0.265578 68.0246 0.0364607 68.3009 0.00121179C68.5773 -0.0164127 68.8168 0.159832 68.8537 0.424198C68.8537 0.459447 68.8537 0.477072 68.8537 0.512321C68.7616 1.35829 68.5773 2.16902 68.2641 2.94449C68.0983 3.33223 67.9324 3.70234 67.7113 4.05483C67.5087 4.40732 67.2691 4.74219 67.0112 5.07705C66.4953 5.72916 65.9057 6.31076 65.2792 6.82187C64.6528 7.3506 63.9711 7.80884 63.2709 8.24945C63.1972 8.30232 63.1051 8.26707 63.0498 8.19658C62.9946 8.12608 63.013 8.03796 63.0867 7.98508Z" fill="#B28247"/>
<path d="M68.4301 7.81049C68.6512 7.6695 68.8723 7.54613 69.0934 7.44038C69.3145 7.31701 69.554 7.21126 69.7935 7.12314C70.2541 6.92927 70.7332 6.75303 71.2122 6.59441C71.6913 6.43579 72.1887 6.31242 72.6862 6.22429C73.1837 6.13617 73.6996 6.06567 74.2155 6.06567C74.4734 6.06567 74.7314 6.0833 75.0077 6.13617C75.2657 6.18904 75.5236 6.29479 75.7632 6.47104C75.8737 6.55916 75.9658 6.64728 76.058 6.75303C76.1501 6.85877 76.2238 6.96452 76.2791 7.10552C76.3343 7.22889 76.3712 7.36988 76.3896 7.51088C76.408 7.65187 76.3896 7.81049 76.3343 7.93386C76.2422 8.21586 76.0764 8.4626 75.8737 8.63884C75.6526 8.83271 75.3947 8.97371 75.1183 9.06183C74.8235 9.14995 74.4918 9.16758 74.1786 9.06183C74.0128 9.00896 73.8654 8.92083 73.7364 8.81509C73.6075 8.70934 73.4969 8.58597 73.4232 8.44497C73.3127 8.26873 73.3679 8.05724 73.5522 7.95149C73.7364 7.84574 73.9575 7.89862 74.0681 8.07486C74.0681 8.09248 74.0865 8.09248 74.0865 8.11011C74.1602 8.26873 74.2708 8.3921 74.4181 8.4626C74.5655 8.5331 74.7682 8.55072 74.9709 8.51547C75.3762 8.44497 75.7632 8.16298 75.929 7.81049C76.0027 7.63425 76.0211 7.42276 75.9474 7.22889C75.8553 7.01739 75.7263 6.82352 75.5421 6.68253C75.3762 6.54153 75.1551 6.45341 74.934 6.40054C74.7129 6.34766 74.455 6.31242 74.2155 6.31242C73.718 6.29479 73.2205 6.36529 72.7415 6.45341C72.244 6.54153 71.765 6.68253 71.3043 6.82352C70.8253 6.98214 70.3647 7.15839 69.9225 7.36988C69.4803 7.58138 69.0381 7.82812 68.6696 8.11011C68.5775 8.18061 68.4669 8.16298 68.3932 8.07486C68.3011 8.00436 68.3195 7.88099 68.4301 7.81049Z" fill="#B28247"/>
<path d="M54.8324 6.48755H0V7.13965H54.8324V6.48755Z" fill="#B28247"/>
</svg>
