<svg width="81" height="11" viewBox="0 0 81 11" fill="none" xmlns="http://www.w3.org/2000/svg">
<path d="M22.667 5.42003L22.7407 5.38317L22.796 5.36473C22.8329 5.3463 22.8882 5.32786 22.9251 5.32786C23.0173 5.30943 23.091 5.27256 23.1832 5.27256C23.3675 5.23569 23.5334 5.25413 23.7177 5.27256C24.068 5.32786 24.3998 5.53064 24.6763 5.78871C24.9528 6.06522 25.1556 6.39703 25.2662 6.78414C25.3952 7.15282 25.4321 7.55836 25.3768 7.94547C25.3215 8.33259 25.174 8.70126 24.9344 8.9962C24.6947 9.30958 24.3629 9.54922 24.0127 9.71513C23.644 9.88103 23.2385 9.99163 22.8329 10.0654C22.6301 10.1022 22.4089 10.1207 22.2062 10.1207C22.0034 10.1207 21.8006 10.1207 21.5794 10.1022C20.7499 10.0285 19.9388 9.77043 19.1461 9.42018C18.3719 9.06994 17.6346 8.62753 16.9156 8.12981C16.5654 7.89017 16.2151 7.6321 15.8649 7.37402L14.8142 6.5998C14.4639 6.34173 14.1137 6.10209 13.745 5.84401C13.3763 5.60437 13.0261 5.3463 12.6574 5.10666C11.9201 4.62738 11.1643 4.16653 10.39 3.74255C9.61582 3.31857 8.80473 2.93146 7.95677 2.61808C7.10881 2.30471 6.22398 2.06507 5.32072 2.00977C5.21012 2.00977 5.09951 2.00977 4.97048 2.00977C4.91517 2.00977 4.85988 2.00977 4.80458 2.00977H4.63867C4.41746 2.0282 4.19626 2.04663 3.95662 2.06507C3.51421 2.12037 3.05336 2.23097 2.62938 2.37844C2.2054 2.54435 1.78142 2.74712 1.41274 3.02363C1.04406 3.30014 0.730684 3.65038 0.491044 4.05593C0.251404 4.46147 0.103933 4.90388 0.0301971 5.36473C-0.0251045 5.82558 -0.00666893 6.30486 0.103934 6.74727C0.325141 7.65053 0.841295 8.49849 1.57865 9.08837C1.94733 9.38332 2.35287 9.64139 2.79528 9.82573C3.23769 10.0101 3.69854 10.1391 4.17782 10.2128C4.45433 10.2497 4.7124 10.0654 4.7677 9.78886C4.80457 9.51235 4.62024 9.25428 4.34373 9.19898C4.3253 9.19898 4.28843 9.19898 4.26999 9.19898C3.47734 9.19898 2.68468 8.97777 2.02106 8.53536C1.35744 8.09295 0.841287 7.39246 0.620081 6.61824C0.38044 5.84401 0.454185 4.95919 0.85973 4.2587C1.0625 3.90845 1.33902 3.59508 1.67083 3.35544C2.00264 3.1158 2.37131 2.93146 2.77685 2.80242C3.1824 2.67339 3.58794 2.61808 4.01192 2.58122C4.21469 2.56278 4.43589 2.56278 4.63867 2.56278H4.78614C4.84144 2.56278 4.89675 2.56278 4.95205 2.56278C5.06266 2.56278 5.15482 2.58122 5.26543 2.58122C5.67097 2.61808 6.09494 2.71025 6.48205 2.83929C6.8876 2.96833 7.27472 3.1158 7.66184 3.2817C8.43606 3.63195 9.17341 4.07436 9.89233 4.53521C10.6113 4.99605 11.3302 5.49377 12.0491 5.97305L13.1367 6.7104C13.5054 6.95005 13.8556 7.18969 14.2427 7.42933C14.6114 7.66897 14.9985 7.89017 15.3856 8.11138C15.7727 8.33259 16.1599 8.53536 16.547 8.73813C17.3212 9.19898 18.1138 9.58609 18.9434 9.93633C19.7729 10.2866 20.6393 10.5631 21.5425 10.6368C22.0034 10.6737 22.4642 10.6553 22.9066 10.5815C23.3491 10.5078 23.8099 10.3972 24.2339 10.1944C24.6579 9.99163 25.045 9.71513 25.3584 9.32802C25.6717 8.95934 25.8745 8.49849 25.9482 8.01921C26.022 7.53993 25.9851 7.06065 25.8561 6.5998C25.727 6.13895 25.4874 5.71498 25.1556 5.3463C24.8238 4.97762 24.3814 4.70111 23.8836 4.57207C23.6256 4.51677 23.3675 4.49834 23.1094 4.51677C22.9804 4.53521 22.8513 4.55364 22.7223 4.57207C22.667 4.59051 22.5933 4.60894 22.538 4.62738L22.4458 4.66424L22.3721 4.70111C22.1693 4.77485 22.0587 4.99605 22.1324 5.21726C22.2062 5.42003 22.4274 5.53064 22.6486 5.4569C22.6486 5.42003 22.6486 5.42003 22.667 5.42003Z" fill="#B28247"/>
<path d="M18.9058 8.35181C18.1869 7.94627 17.5233 7.44855 16.9334 6.91397C16.3251 6.36096 15.7905 5.75264 15.3481 5.07058C15.1269 4.73877 14.9241 4.3701 14.7582 4.01985C14.5923 3.65118 14.4632 3.2825 14.3526 2.89539C14.1499 2.12116 14.0761 1.32851 14.1499 0.554284C14.1683 0.277776 13.9655 0.0381352 13.689 0.00126744C13.4125 -0.0171664 13.1729 0.167172 13.136 0.44368C13.136 0.480548 13.136 0.498982 13.136 0.53585C13.2282 1.42068 13.4125 2.26863 13.7259 3.07973C13.8918 3.48527 14.0577 3.87238 14.2789 4.24106C14.4817 4.60974 14.7213 4.95998 14.9794 5.31022C15.4955 5.99228 16.0854 6.6006 16.7122 7.13518C17.3389 7.68819 18.021 8.16747 18.7215 8.62832C18.7952 8.68362 18.8874 8.64676 18.9427 8.57302C18.998 8.49928 18.9795 8.40711 18.9058 8.35181Z" fill="#B28247"/>
<path d="M13.5592 8.17151C13.338 8.02404 13.1168 7.895 12.8956 7.7844C12.6744 7.65536 12.4348 7.54476 12.1951 7.45259C11.7343 7.24982 11.255 7.06548 10.7757 6.89958C10.2964 6.73367 9.79871 6.60463 9.30099 6.51246C8.78485 6.40186 8.28713 6.32812 7.77098 6.32812C7.5129 6.32812 7.25483 6.34656 6.97832 6.40186C6.72025 6.45716 6.46217 6.56777 6.22253 6.7521C6.11192 6.84427 6.01976 6.93644 5.92759 7.04705C5.83542 7.15765 5.76168 7.26825 5.70638 7.41572C5.65108 7.54476 5.61421 7.69223 5.59578 7.8397C5.57735 7.98717 5.59578 8.15308 5.65108 8.28212C5.74325 8.57706 5.90915 8.83513 6.11193 9.01947C6.33313 9.22224 6.59121 9.36971 6.86772 9.46188C7.16266 9.55405 7.49446 9.57249 7.80784 9.46188C7.97375 9.40658 8.12123 9.31441 8.25026 9.20381C8.3793 9.09321 8.4899 8.96417 8.56364 8.8167C8.67424 8.63236 8.61894 8.41115 8.4346 8.30055C8.25026 8.18995 8.02906 8.24525 7.91845 8.42959C7.91845 8.44802 7.90002 8.44802 7.90002 8.46645C7.82628 8.63236 7.71568 8.7614 7.5682 8.83513C7.42073 8.90887 7.21796 8.9273 7.01518 8.89043C6.60964 8.8167 6.22254 8.52176 6.07507 8.15308C6.00133 7.96874 5.98289 7.74753 6.05663 7.54476C6.13036 7.34199 6.2594 7.13922 6.44374 6.99174C6.60964 6.84427 6.83085 6.7521 7.05206 6.6968C7.2917 6.6415 7.53134 6.60463 7.77098 6.60463C8.26869 6.5862 8.7664 6.65993 9.24568 6.7521C9.7434 6.84427 10.2227 6.99174 10.6835 7.13922C11.1628 7.30512 11.6237 7.48946 12.0661 7.71067C12.5085 7.93187 12.9509 8.18995 13.3196 8.48489C13.4117 8.55862 13.5223 8.54019 13.5961 8.44802C13.6882 8.37429 13.6698 8.24525 13.5592 8.17151Z" fill="#B28247"/>
<path d="M82.0232 6.78638H27.1639V7.46843H82.0232V6.78638Z" fill="#B28247"/>
</svg>
