<svg width="22" height="22" viewBox="0 0 22 22" fill="none" xmlns="http://www.w3.org/2000/svg">
<path d="M15.1571 2.23511H6.84302V3.52413H15.1571V2.23511Z" fill="#4B4B4B"/>
<path d="M5.5542 2.87964H4.27979V3.38104H5.5542V2.87964Z" fill="#4B4B4B"/>
<path d="M17.7213 2.87964H16.4469V3.38104H17.7213V2.87964Z" fill="#4B4B4B"/>
<path d="M19.0097 2.23511V4.67006H15.1572V2.8796H6.84313V4.67006H2.99068V2.23511H0.000610352V6.23103H21.9998V2.23511H19.0097Z" fill="#4B4B4B"/>
<path d="M0.000610352 7.52002V21.9999H21.9998V7.52002H0.000610352ZM4.80864 19.5938H2.67877V18.3047H4.80864V19.5938ZM4.80864 16.8009H2.67877V15.5119H4.80864V16.8009ZM4.80864 14.008H2.67877V12.719H4.80864V14.008ZM8.43675 19.5938H6.30731V18.3047H8.43675V19.5938ZM8.43675 16.8009H6.30731V15.5119H8.43675V16.8009ZM8.43675 14.008H6.30731V12.719H8.43675V14.008ZM12.0649 19.5938H9.93546V18.3047H12.0649V19.5938ZM12.0649 16.8009H9.93546V15.5119H12.0649V16.8009ZM12.0649 14.008H9.93546V12.719H12.0649V14.008ZM12.0649 11.2152H9.93546V9.92618H12.0649V11.2152ZM15.6931 19.5938H13.5636V18.3047H15.6931V19.5938ZM15.6931 16.8009H13.5636V15.5119H15.6931V16.8009ZM15.6931 14.008H13.5636V12.719H15.6931V14.008ZM15.6931 11.2152H13.5636V9.92618H15.6931V11.2152ZM19.3216 16.8009H17.1917V15.5119H19.3216V16.8009ZM19.3216 14.008H17.1917V12.719H19.3216V14.008ZM19.3216 11.2152H17.1917V9.92618H19.3216V11.2152Z" fill="#4B4B4B"/>
<path d="M5.5542 0H4.27979V3.38108H5.5542V0Z" fill="#4B4B4B"/>
<path d="M17.7213 0H16.4469V3.38108H17.7213V0Z" fill="#4B4B4B"/>
</svg>
