<svg width="53" height="25" viewBox="0 0 53 25" fill="none" xmlns="http://www.w3.org/2000/svg">
<path d="M5.288 9.808C5.672 9.784 6.224 9.784 6.632 9.784C8.144 9.784 9.248 10.072 9.728 10.36C10.256 10.768 10.472 11.536 10.64 12.136C10.688 12.304 10.736 12.4 11 12.4C11.24 12.4 11.288 12.328 11.288 12.136C11.264 11.272 11.24 10.24 11.24 9.352C11.24 8.512 11.264 7.696 11.288 6.856C11.288 6.64 11.264 6.568 10.976 6.568C10.712 6.568 10.688 6.64 10.64 6.832C10.472 7.432 10.28 8.008 9.752 8.416C9.296 8.752 8.168 8.944 6.632 8.944C6.224 8.944 5.672 8.944 5.288 8.92V5.344C5.288 4.048 5.264 2.944 5.528 2.44C5.816 1.888 6.584 1.84 7.424 1.84C9.392 1.84 10.424 2.08 11.144 2.608C11.768 3.064 12.368 4.192 12.776 5.176C12.824 5.32 12.896 5.368 13.16 5.344C13.4 5.296 13.424 5.224 13.4 5.08C13.232 3.784 13.064 2.2 12.968 0.975999C10.856 1.048 8.672 1.072 6.704 1.072C4.76 1.072 2.384 1.024 0.272 0.975999C0.104 0.975999 0.0560001 1.024 0.0560001 1.312C0.0560001 1.576 0.104 1.6 0.272 1.624C1.256 1.72 1.856 1.744 2.096 2.2C2.384 2.728 2.384 3.04 2.384 5.344V14.056C2.384 15.688 2.384 16.744 2.096 17.296C1.832 17.8 1.376 17.8 0.416 17.896C0.272 17.92 0.224 17.944 0.224 18.208C0.224 18.448 0.272 18.472 0.44 18.472C1.52 18.424 2.672 18.4 3.776 18.4C4.928 18.4 6.248 18.424 7.376 18.472C7.568 18.472 7.616 18.448 7.616 18.184C7.616 17.968 7.568 17.92 7.4 17.896C6.416 17.8 5.84 17.776 5.576 17.296C5.288 16.792 5.288 16.456 5.288 14.056V9.808ZM25.9519 14.704C26.4079 16.024 26.5519 16.696 26.3839 17.224C26.2399 17.704 25.6399 17.8 24.7279 17.848C24.5839 17.848 24.5359 17.896 24.5359 18.16C24.5359 18.424 24.5599 18.472 24.7279 18.472C25.7599 18.448 27.1759 18.424 28.1119 18.424C29.1439 18.424 30.4879 18.448 31.5199 18.472C31.7839 18.472 31.8319 18.424 31.8319 18.16C31.8319 17.896 31.7839 17.848 31.5199 17.848C30.6079 17.776 30.3679 17.728 29.9599 17.224C29.5759 16.744 29.2399 15.904 28.7599 14.488L26.0479 6.664C24.9679 3.52 24.5359 2.32 24.0559 0.831999C24.0079 0.663999 23.9119 0.615999 23.7439 0.615999L21.8479 1.48C21.4639 2.752 21.2479 3.496 20.1199 6.52L17.2399 14.296C16.7119 15.736 16.2559 16.624 15.7759 17.104C15.4159 17.44 15.0079 17.752 14.3599 17.848C14.1439 17.848 14.0959 17.896 14.0959 18.16C14.0959 18.424 14.1439 18.472 14.3599 18.472C15.1519 18.424 16.0399 18.424 16.8799 18.424C17.7679 18.424 18.9919 18.424 19.8799 18.472C20.0719 18.472 20.1439 18.424 20.1439 18.16C20.1439 17.896 20.0719 17.848 19.9279 17.848C19.0639 17.752 18.2719 17.584 18.0559 17.08C17.8399 16.528 17.7919 15.808 18.3199 14.392L19.2319 11.872C20.2399 11.824 21.1999 11.776 22.2079 11.776C23.1199 11.776 24.1519 11.824 24.9439 11.872L25.9519 14.704ZM24.6079 10.912C23.9119 10.96 22.9759 10.96 22.2079 10.96C21.2959 10.96 20.3359 10.96 19.5439 10.912L21.0799 6.664C21.6319 5.128 21.8239 4.504 22.1599 3.568C22.4239 4.432 22.6159 5.128 23.1679 6.712L24.6079 10.912ZM39.5348 20.248C41.4788 19.216 41.9348 18.832 43.1588 18.832C48.5828 18.832 52.4708 14.968 52.4708 9.688C52.4708 4.336 48.5828 0.568 43.1588 0.568C37.7348 0.568 33.8708 4.456 33.8708 9.736C33.8708 14.32 36.8228 17.872 41.1668 18.664L37.8788 20.464C37.4468 20.704 36.7268 21.016 36.1748 21.256C36.0548 21.328 36.0068 21.4 36.0068 21.52C36.0068 21.64 36.0548 21.784 36.1508 21.952C36.2948 22.192 36.4388 22.288 36.5828 22.288C36.6788 22.288 36.7988 22.216 36.8708 22.168C37.5668 21.664 38.1668 21.136 39.0068 21.136C39.9188 21.136 41.6708 21.856 43.6628 22.792C45.4628 23.632 46.7588 24.232 48.2228 24.232C49.7108 24.232 50.8868 23.152 52.0148 21.712C52.1108 21.592 52.1588 21.52 52.1588 21.448C52.1588 21.352 52.1108 21.28 52.0148 21.184C51.8948 21.064 51.7988 21.04 51.7268 21.04C51.6548 21.04 51.6068 21.064 51.5348 21.136C50.8628 21.832 50.3588 22.12 49.1588 22.12C48.2228 22.12 46.5428 21.424 44.8628 20.824C43.3988 20.32 42.5348 20.104 41.5748 20.104C41.0228 20.104 40.3988 20.2 39.6308 20.488L39.5348 20.248ZM43.1588 1.384C46.6868 1.384 49.1348 4.672 49.1348 9.76C49.1348 14.728 46.7348 18.04 43.1588 18.04C39.5828 18.04 37.2068 14.728 37.2068 9.688C37.2068 4.72 39.6308 1.384 43.1588 1.384Z" fill="black"/>
</svg>
