<svg width="284" height="54" viewBox="0 0 284 54" fill="none" xmlns="http://www.w3.org/2000/svg">
<rect x="1" y="1" width="282" height="52" rx="3" fill="url(#paint0_linear)" stroke="#A08A60" stroke-width="2"/>
<path d="M80.992 20.216C81.104 20.152 81.152 20.072 81.152 19.976C81.152 19.848 81.056 19.784 80.864 19.752C80.384 19.608 79.776 19.496 79.152 19.4C79.04 19.784 78.832 20.136 78.56 20.536C77.232 22.456 75.296 24.152 72.384 25.4C72.704 25.672 72.944 26.072 73.12 26.504C73.232 26.776 73.296 26.888 73.408 26.888C73.488 26.888 73.6 26.84 73.776 26.744C74.928 26.136 76 25.448 76.992 24.664V25.944C76.992 26.104 77.008 26.12 77.184 26.12C77.28 26.12 77.664 26.088 78.896 26.088H81.12C82.368 26.088 82.752 26.12 82.848 26.12C83.008 26.12 83.024 26.104 83.024 25.944V24.712C84.032 25.48 85.168 26.152 86.384 26.696C86.56 26.792 86.688 26.84 86.768 26.84C86.912 26.84 86.96 26.728 87.04 26.424C87.152 25.976 87.408 25.432 87.696 25.08C85.024 24.152 82.624 22.712 80.864 20.312L80.992 20.216ZM77.152 24.536C78.192 23.688 79.136 22.728 79.936 21.624C80.72 22.696 81.68 23.672 82.784 24.536C82.624 24.536 82.208 24.552 81.12 24.552H78.896C77.664 24.552 77.28 24.536 77.184 24.536H77.152ZM82.656 28.936C81.968 30.376 80.784 32.168 79.552 33.48C79.488 33.544 79.456 33.592 79.456 33.624C79.456 33.736 79.664 33.816 80.272 34.056C80.736 34.248 80.944 34.344 81.072 34.344C81.152 34.344 81.2 34.296 81.264 34.216C82.496 32.648 83.792 30.696 84.384 29.56C84.608 29.144 84.736 28.936 84.912 28.792C85.072 28.664 85.12 28.6 85.12 28.44C85.12 28.344 85.088 28.216 84.56 27.704C84.144 27.304 84 27.256 83.84 27.256C83.776 27.256 83.696 27.288 83.6 27.32C83.488 27.368 83.312 27.384 83.04 27.384H77.28C75.728 27.384 75.2 27.352 75.104 27.352C74.944 27.352 74.928 27.368 74.928 27.528V28.776C74.928 28.952 74.944 28.968 75.104 28.968C75.2 28.968 75.728 28.936 77.28 28.936H82.656ZM97.952 22.52C96.032 22.632 93.968 22.76 92.992 22.84C92.144 22.904 91.632 22.968 91.04 22.904C91.168 23.56 91.312 24.2 91.44 24.52C91.488 24.68 91.552 24.744 91.712 24.744C91.856 24.744 92.112 24.6 92.464 24.552C93.728 24.376 95.984 24.184 98 24.072C98 24.6 98.016 25.144 98.016 25.704C97.76 25.48 97.28 25.384 96.8 25.384C95.504 25.384 94.384 26.296 94.384 27.784C94.384 29.32 95.344 30.232 96.608 30.232C97.136 30.232 97.792 30.056 98.112 29.592C97.824 30.936 96.704 32.28 94.832 33.112C95.248 33.24 95.68 33.448 96.048 33.752C96.208 33.88 96.384 33.992 96.528 33.992C96.672 33.992 96.88 33.864 97.152 33.688C99.248 32.312 100 30.376 100 28.52C100 27.992 99.92 27.368 99.76 26.936C99.744 25.96 99.744 24.936 99.744 23.96C101.408 23.944 102.96 23.944 104.624 23.992C104.816 24.008 104.896 23.96 104.896 23.784C104.912 23.384 104.912 22.968 104.896 22.568C104.88 22.36 104.848 22.328 104.656 22.328C103.12 22.328 101.472 22.344 99.744 22.408C99.76 21.8 99.76 21.592 99.776 21.384C99.808 21.176 99.856 21.016 99.904 20.92C100 20.76 100.048 20.68 100.048 20.552C100.048 20.408 99.872 20.296 99.6 20.248C99.216 20.168 98.448 20.072 97.728 20.024C97.856 20.504 97.888 20.728 97.92 21.192C97.936 21.624 97.936 22.024 97.952 22.52ZM96.928 26.632C97.568 26.632 97.984 27 97.984 27.656C97.984 28.392 97.488 28.76 96.896 28.76C96.32 28.76 95.872 28.376 95.872 27.672C95.872 26.968 96.432 26.632 96.928 26.632ZM116.367 20.008C116.175 20.408 115.935 20.744 115.503 21.208C114.127 22.712 112.799 24.04 111.439 25.512C110.943 26.04 110.655 26.392 110.655 26.92C110.655 27.448 110.895 27.8 111.503 28.264C113.679 29.928 115.471 31.592 117.327 33.672C117.407 33.768 117.455 33.816 117.519 33.816C117.583 33.816 117.647 33.768 117.743 33.688C118.015 33.448 118.479 32.984 118.847 32.584C118.927 32.504 118.959 32.456 118.959 32.392C118.959 32.328 118.911 32.264 118.847 32.184C117.135 30.392 114.975 28.648 112.895 27.144C112.751 27.032 112.687 26.952 112.687 26.856C112.687 26.776 112.751 26.68 112.895 26.504C114.127 25.224 115.887 23.576 117.263 22.344C117.599 22.024 117.839 21.88 118.031 21.784C118.175 21.72 118.255 21.624 118.255 21.48C118.255 21.416 118.207 21.288 118.127 21.224C117.679 20.84 117.071 20.424 116.367 20.008ZM118.047 23.72C118.671 24.232 119.183 24.84 119.663 25.576C119.743 25.688 119.823 25.704 119.935 25.624L120.607 25.128C120.719 25.048 120.719 24.968 120.655 24.872C120.207 24.184 119.631 23.544 119.135 23.16C119.039 23.08 118.975 23.064 118.895 23.128L118.047 23.72ZM119.519 22.664C120.175 23.208 120.687 23.816 121.119 24.504C121.183 24.6 121.263 24.648 121.391 24.552L122.031 24.056C122.159 23.96 122.143 23.864 122.079 23.768C121.727 23.208 121.151 22.568 120.559 22.12C120.463 22.04 120.415 22.024 120.319 22.088L119.519 22.664ZM129.855 27.976C128.687 28.648 127.935 29.08 127.247 29.464C126.719 29.752 126.191 29.928 125.775 30.024C126.015 30.552 126.335 31.224 126.511 31.512C126.607 31.672 126.735 31.768 126.863 31.768C126.943 31.768 127.055 31.736 127.135 31.656C127.279 31.528 127.471 31.4 127.647 31.304C128.655 31.992 129.487 32.76 129.919 33.352C130.063 33.56 130.127 33.688 130.303 33.672C130.623 33.656 131.135 33.576 131.487 33.48C131.759 33.416 131.727 33.176 131.727 32.952C131.727 32.584 131.647 31.576 131.599 30.872C131.567 30.168 131.551 29.624 131.535 28.952C133.183 28.104 134.287 27.864 135.199 27.864C136.319 27.864 136.959 28.44 136.959 29.48C136.959 30.616 136.127 31.128 135.231 31.128C134.639 31.128 133.999 31.096 133.231 30.84C133.567 31.304 133.679 31.848 133.711 32.2C133.711 32.456 133.807 32.616 134.063 32.68C134.399 32.76 134.911 32.824 135.375 32.824C137.535 32.824 138.847 31.624 138.847 29.576C138.847 27.656 137.423 26.392 135.439 26.376C134.415 26.36 133.007 26.616 131.503 27.256C131.519 26.488 131.519 25.704 131.535 24.936C132.495 24.744 132.767 24.664 133.823 24.328C133.983 24.28 134.031 24.232 134.031 24.072C134.031 23.656 133.999 23.224 133.935 22.824C133.919 22.664 133.807 22.632 133.663 22.68C132.975 22.92 132.319 23.128 131.615 23.272C131.631 22.76 131.647 22.36 131.695 21.944C131.727 21.736 131.807 21.528 131.919 21.32C131.983 21.208 132.015 21.128 132.015 21.064C132.015 20.92 131.887 20.808 131.695 20.76C131.263 20.632 130.591 20.52 129.791 20.472C129.887 20.888 129.903 21.352 129.903 21.768C129.903 22.456 129.887 23.064 129.887 23.592C129.215 23.656 128.527 23.72 127.855 23.72C127.439 23.72 127.023 23.704 126.607 23.64C126.671 24.2 126.735 24.728 126.783 25.032C126.815 25.272 126.895 25.368 127.167 25.368C128.239 25.368 129.055 25.304 129.855 25.24V27.976ZM129.935 29.656C129.967 30.184 129.999 30.92 130.031 31.336C130.047 31.48 129.999 31.496 129.871 31.464C129.359 31.256 128.815 30.984 128.367 30.744C128.943 30.328 129.487 29.96 129.935 29.656ZM135.279 23.592C136.559 24.024 137.679 24.616 138.527 25.56C138.575 25.64 138.799 25.624 138.847 25.56C139.087 25.24 139.503 24.744 139.711 24.424C139.743 24.36 139.775 24.312 139.775 24.264C139.775 24.216 139.743 24.168 139.679 24.104C138.847 23.256 137.759 22.584 136.287 22.152C136.175 22.12 136.127 22.168 136.015 22.344C135.743 22.744 135.487 23.16 135.279 23.592ZM152.783 26.008V28.168H152.191C150.847 28.168 150.383 28.136 150.271 28.136C150.111 28.136 150.095 28.152 150.095 28.312C150.095 28.408 150.127 28.856 150.127 30.12V31.368C150.127 33.576 150.095 33.992 150.095 34.104C150.095 34.248 150.111 34.264 150.271 34.264H151.583C151.743 34.264 151.759 34.248 151.759 34.104V33.448H155.567V34.024C155.567 34.168 155.583 34.184 155.743 34.184H157.055C157.215 34.184 157.231 34.168 157.231 34.024C157.231 33.928 157.199 33.512 157.199 31.32V29.88C157.199 28.856 157.231 28.408 157.231 28.312C157.231 28.152 157.215 28.136 157.055 28.136C156.959 28.136 156.479 28.168 155.135 28.168H154.463V26.008H155.775C157.263 26.008 157.775 26.04 157.871 26.04C158.031 26.04 158.047 26.024 158.047 25.864V24.648C158.047 24.504 158.031 24.488 157.871 24.488C157.775 24.488 157.263 24.52 155.775 24.52H154.463V22.008C155.183 21.832 155.871 21.624 156.511 21.4C156.719 21.336 156.975 21.272 157.135 21.272C157.359 21.272 157.455 21.208 157.455 21.096C157.455 21 157.423 20.936 157.343 20.824C157.103 20.488 156.735 20.04 156.383 19.672C156.143 19.832 155.887 19.96 155.567 20.072C153.951 20.664 151.807 21.128 149.503 21.288C149.711 21.528 149.919 21.896 150.063 22.376C150.191 22.76 150.191 22.776 150.575 22.728C151.327 22.632 152.063 22.52 152.783 22.392V24.52H151.743C150.255 24.52 149.759 24.488 149.663 24.488C149.503 24.488 149.487 24.504 149.487 24.648V25.864C149.487 26.024 149.503 26.04 149.663 26.04C149.759 26.04 150.255 26.008 151.743 26.008H152.783ZM151.759 29.608H155.567V32.024H151.759V29.608ZM148.959 30.36C148.959 29.608 148.991 29.224 148.991 29.128C148.991 28.968 148.975 28.952 148.815 28.952C148.703 28.952 148.383 28.984 147.343 28.984H145.807C144.783 28.984 144.447 28.952 144.351 28.952C144.175 28.952 144.159 28.968 144.159 29.128C144.159 29.24 144.191 29.624 144.191 30.632V31.704C144.191 33.64 144.159 34.008 144.159 34.12C144.159 34.264 144.175 34.28 144.351 34.28H145.519C145.679 34.28 145.695 34.264 145.695 34.12V33.384H147.471V33.816C147.471 33.976 147.487 33.992 147.647 33.992H148.815C148.975 33.992 148.991 33.976 148.991 33.816C148.991 33.72 148.959 33.368 148.959 31.512V30.36ZM147.471 30.312V32.072H145.695V30.312H147.471ZM145.375 22.424C144.159 22.424 143.759 22.392 143.663 22.392C143.519 22.392 143.503 22.408 143.503 22.568V23.704C143.503 23.88 143.519 23.896 143.663 23.896C143.759 23.896 144.159 23.864 145.375 23.864H147.567C148.783 23.864 149.183 23.896 149.279 23.896C149.439 23.896 149.455 23.88 149.455 23.704V22.568C149.455 22.408 149.439 22.392 149.279 22.392C149.183 22.392 148.783 22.424 147.567 22.424H145.375ZM145.855 20.232C144.815 20.232 144.495 20.2 144.399 20.2C144.239 20.2 144.223 20.216 144.223 20.376V21.432C144.223 21.592 144.239 21.608 144.399 21.608C144.495 21.608 144.815 21.576 145.855 21.576H147.391C148.415 21.576 148.735 21.608 148.831 21.608C149.007 21.608 149.023 21.592 149.023 21.432V20.376C149.023 20.216 149.007 20.2 148.831 20.2C148.735 20.2 148.415 20.232 147.391 20.232H145.855ZM145.903 24.68C144.927 24.68 144.639 24.648 144.543 24.648C144.383 24.648 144.367 24.664 144.367 24.824V25.864C144.367 26.024 144.383 26.04 144.543 26.04C144.639 26.04 144.927 26.008 145.903 26.008H147.263C148.239 26.008 148.511 26.04 148.607 26.04C148.783 26.04 148.799 26.024 148.799 25.864V24.824C148.799 24.664 148.783 24.648 148.607 24.648C148.511 24.648 148.239 24.68 147.263 24.68H145.903ZM145.903 26.824C144.927 26.824 144.639 26.792 144.543 26.792C144.383 26.792 144.367 26.808 144.367 26.968V27.992C144.367 28.152 144.383 28.168 144.543 28.168C144.639 28.168 144.927 28.136 145.903 28.136H147.263C148.239 28.136 148.511 28.168 148.607 28.168C148.783 28.168 148.799 28.152 148.799 27.992V26.968C148.799 26.808 148.783 26.792 148.607 26.792C148.511 26.792 148.239 26.824 147.263 26.824H145.903ZM164.991 20.376C165.231 21.336 165.183 22.36 165.151 23.304C165.071 25.224 164.927 27.528 164.927 30.216C164.927 32.664 165.887 33.48 167.935 33.48C170.015 33.48 172.271 32.664 173.999 31.08C174.255 30.856 174.319 30.728 174.319 30.584C174.319 30.488 174.271 30.376 174.191 30.2C174.031 29.816 173.887 29.288 173.823 28.68C171.871 30.76 169.647 31.624 168.223 31.624C166.943 31.624 166.751 31.256 166.751 29.64C166.751 27.544 166.831 25.912 166.991 23.448C167.071 22.216 167.135 21.72 167.215 21.496C167.279 21.336 167.375 21.144 167.375 20.968C167.375 20.808 167.263 20.728 166.991 20.664C166.495 20.536 165.727 20.456 164.991 20.376ZM185.233 22.52C183.313 22.632 181.249 22.76 180.273 22.84C179.425 22.904 178.913 22.968 178.321 22.904C178.449 23.56 178.593 24.2 178.721 24.52C178.769 24.68 178.833 24.744 178.993 24.744C179.137 24.744 179.393 24.6 179.745 24.552C181.009 24.376 183.265 24.184 185.281 24.072C185.281 24.6 185.297 25.144 185.297 25.704C185.041 25.48 184.561 25.384 184.081 25.384C182.785 25.384 181.665 26.296 181.665 27.784C181.665 29.32 182.625 30.232 183.889 30.232C184.417 30.232 185.073 30.056 185.393 29.592C185.105 30.936 183.985 32.28 182.113 33.112C182.529 33.24 182.961 33.448 183.329 33.752C183.489 33.88 183.665 33.992 183.809 33.992C183.953 33.992 184.161 33.864 184.433 33.688C186.529 32.312 187.281 30.376 187.281 28.52C187.281 27.992 187.201 27.368 187.041 26.936C187.025 25.96 187.025 24.936 187.025 23.96C188.689 23.944 190.241 23.944 191.905 23.992C192.097 24.008 192.177 23.96 192.177 23.784C192.193 23.384 192.193 22.968 192.177 22.568C192.161 22.36 192.129 22.328 191.937 22.328C190.401 22.328 188.753 22.344 187.025 22.408C187.041 21.8 187.041 21.592 187.057 21.384C187.089 21.176 187.137 21.016 187.185 20.92C187.281 20.76 187.329 20.68 187.329 20.552C187.329 20.408 187.153 20.296 186.881 20.248C186.497 20.168 185.729 20.072 185.009 20.024C185.137 20.504 185.169 20.728 185.201 21.192C185.217 21.624 185.217 22.024 185.233 22.52ZM184.209 26.632C184.849 26.632 185.265 27 185.265 27.656C185.265 28.392 184.769 28.76 184.177 28.76C183.601 28.76 183.153 28.376 183.153 27.672C183.153 26.968 183.713 26.632 184.209 26.632ZM201.633 26.248C202.849 25.08 203.921 23.96 205.089 22.824C205.393 22.552 205.521 22.44 205.793 22.312C205.969 22.232 206.065 22.088 206.065 21.928C206.065 21.8 206.017 21.688 205.889 21.544C205.617 21.208 205.297 20.888 204.817 20.52C204.705 20.44 204.609 20.392 204.449 20.392C204.369 20.392 204.225 20.472 204.145 20.52C203.985 20.6 203.665 20.68 203.265 20.76C202.017 21 200.609 21.208 199.633 21.304C199.153 21.336 198.625 21.336 198.145 21.272C198.369 22.184 198.513 22.632 198.705 23C198.785 23.192 198.897 23.272 199.057 23.272C199.137 23.272 199.297 23.224 199.377 23.192C199.633 23.096 199.841 23.048 200.049 23C201.041 22.792 202.177 22.568 203.137 22.392C202.401 23.304 201.649 24.104 200.657 25.128C199.217 26.632 198.113 27.656 196.865 28.664C196.737 28.792 196.689 28.904 196.785 29.032C197.041 29.368 197.393 29.784 197.729 30.072C197.825 30.168 197.905 30.216 197.969 30.216C198.049 30.216 198.129 30.152 198.241 30.04C198.721 29.56 199.169 29.096 199.633 28.68C200.929 27.576 202.401 26.984 203.729 26.984C205.217 26.984 206.241 27.944 206.241 29.4C206.241 30.616 205.729 31.32 204.609 31.832C204.209 30.296 203.105 29.496 201.601 29.496C200.353 29.496 199.345 30.376 199.345 31.448C199.345 32.936 200.561 33.8 202.577 33.8C206.001 33.8 208.161 32.088 208.161 29.416C208.161 27.112 206.529 25.576 204.193 25.576C203.297 25.576 202.545 25.784 201.649 26.296L201.633 26.248ZM203.025 32.232C202.785 32.28 202.577 32.296 202.289 32.296C201.329 32.296 200.897 31.96 200.897 31.464C200.897 31.128 201.201 30.856 201.665 30.856C202.337 30.856 202.817 31.352 203.025 32.232Z" fill="#A08A60"/>
<defs>
<linearGradient id="paint0_linear" x1="142" y1="27" x2="142" y2="54" gradientUnits="userSpaceOnUse">
<stop stop-color="white"/>
<stop offset="1" stop-color="#ECECEC"/>
</linearGradient>
</defs>
</svg>
