<svg width="31" height="22" viewBox="0 0 31 22" fill="none" xmlns="http://www.w3.org/2000/svg">
<path d="M29.4943 10.3419H26.5226C27.0776 9.25968 27.3451 8.05299 27.2996 6.83762C27.2541 5.62224 26.897 4.43895 26.2627 3.40125C25.6283 2.36355 24.738 1.50625 23.677 0.911593C22.6161 0.316936 21.4202 0.00486836 20.2039 0.0053242C19.271 0.00270591 18.3468 0.185154 17.4849 0.54211C16.623 0.899066 15.8404 1.42344 15.1825 2.08488L15.0775 2.19021L14.9722 2.08488C13.7766 0.886442 12.192 0.154782 10.5044 0.0219086C8.81676 -0.110965 7.13721 0.363699 5.76877 1.36026C4.40034 2.35681 3.43313 3.80964 3.04167 5.4566C2.65021 7.10357 2.86026 8.83621 3.63394 10.3419H0.660716C0.485483 10.3419 0.317427 10.4115 0.193519 10.5354C0.0696104 10.6593 0 10.8274 0 11.0026C0 11.1779 0.0696104 11.3459 0.193519 11.4698C0.317427 11.5937 0.485483 11.6634 0.660716 11.6634H4.51174C4.64464 11.8215 4.78169 11.9779 4.93045 12.1266L14.6105 21.8066C14.7344 21.9305 14.9024 22 15.0775 22C15.2527 22 15.4207 21.9305 15.5446 21.8066L25.2246 12.1266C25.373 11.9782 25.5112 11.8223 25.6448 11.6634H29.4959C29.6711 11.6634 29.8391 11.5937 29.9631 11.4698C30.087 11.3459 30.1566 11.1779 30.1566 11.0026C30.1566 10.8274 30.087 10.6593 29.9631 10.5354C29.8391 10.4115 29.6711 10.3419 29.4959 10.3419H29.4943ZM5.86527 3.01894C6.9499 1.93674 8.41952 1.32898 9.9517 1.32898C11.4839 1.32898 12.9535 1.93674 14.0381 3.01894L14.6109 3.59168C14.6722 3.65308 14.745 3.70178 14.8251 3.73501C14.9053 3.76825 14.9912 3.78535 15.0779 3.78535C15.1647 3.78535 15.2506 3.76825 15.3307 3.73501C15.4108 3.70178 15.4836 3.65308 15.5449 3.59168L16.1177 3.01894C17.1324 1.99571 18.4929 1.3887 19.9322 1.31707C21.3715 1.24543 22.7856 1.71434 23.8969 2.63176C25.0082 3.54917 25.7364 4.84883 25.9387 6.27562C26.141 7.70241 25.8027 9.15328 24.9902 10.3434H20.2957L18.3906 5.89701C18.3387 5.7724 18.2494 5.66699 18.135 5.59536C18.0207 5.52372 17.8868 5.48942 17.7521 5.49718C17.6176 5.50353 17.4882 5.55084 17.3813 5.63275C17.2745 5.71467 17.1952 5.82729 17.1541 5.95553L15.0496 12.5208L12.7896 7.28036C12.7437 7.1738 12.6707 7.08119 12.5777 7.01185C12.4847 6.94252 12.3751 6.8989 12.2599 6.88539C12.1447 6.87188 12.0279 6.88895 11.9214 6.93489C11.8149 6.98083 11.7224 7.05402 11.6531 7.14708L9.27154 10.3419H5.16604C4.41563 9.22948 4.07506 7.89086 4.20261 6.55506C4.33016 5.21925 4.91789 3.96927 5.86527 3.01894ZM15.0775 20.4037L6.3357 11.6634H9.60303C9.70561 11.6634 9.80678 11.6395 9.89853 11.5936C9.99028 11.5478 10.0701 11.4811 10.1316 11.3991L12.028 8.85513L14.5339 14.6622C14.585 14.7807 14.6697 14.8817 14.7775 14.9526C14.8853 15.0235 15.0115 15.0613 15.1406 15.0613H15.1727C15.307 15.0547 15.4361 15.0073 15.5427 14.9254C15.6494 14.8435 15.7285 14.731 15.7696 14.603L17.8714 8.04301L19.2517 11.2628C19.3026 11.3817 19.3872 11.483 19.4951 11.5542C19.6031 11.6255 19.7295 11.6634 19.8589 11.6634H23.8194L15.0775 20.4037Z" fill="#4B4B4B"/>
</svg>
