<svg width="22" height="22" viewBox="0 0 22 22" fill="none" xmlns="http://www.w3.org/2000/svg">
<path d="M19.1641 0.6875H2.83594C1.27218 0.6875 0 1.95968 0 3.52344V18.4766C0 20.0403 1.27218 21.3125 2.83594 21.3125H17.1875C18.0361 21.3125 18.834 20.982 19.4341 20.3819L21.0694 18.7466C21.6695 18.1465 22 17.3486 22 16.5V3.52344C22 1.95968 20.7278 0.6875 19.1641 0.6875ZM2.83594 2.0625H19.1641C19.9696 2.0625 20.625 2.71786 20.625 3.52344V5.5H1.375V3.52344C1.375 2.71786 2.03036 2.0625 2.83594 2.0625ZM1.375 18.4766V6.875H20.625V15.8125H18.4766C17.3867 15.8125 16.5 16.6992 16.5 17.7891V19.9375H2.83594C2.03036 19.9375 1.375 19.2821 1.375 18.4766ZM20.0972 17.7743L18.4618 19.4097C18.2909 19.5805 18.0919 19.7129 17.875 19.8023V17.7891C17.875 17.4573 18.1448 17.1875 18.4766 17.1875H20.4898C20.4003 17.4043 20.268 17.6035 20.0972 17.7743Z" fill="#4B4B4B"/>
<path d="M17.1875 9.625C17.1875 9.24533 16.8797 8.9375 16.5 8.9375H5.5C5.12029 8.9375 4.8125 9.24533 4.8125 9.625C4.8125 10.0047 5.12029 10.3125 5.5 10.3125H16.5C16.8797 10.3125 17.1875 10.0047 17.1875 9.625Z" fill="#4B4B4B"/>
<path d="M15.125 12.375H6.875C6.49529 12.375 6.1875 12.6828 6.1875 13.0625C6.1875 13.4422 6.49529 13.75 6.875 13.75H15.125C15.5047 13.75 15.8125 13.4422 15.8125 13.0625C15.8125 12.6828 15.5047 12.375 15.125 12.375Z" fill="#4B4B4B"/>
</svg>
