<svg width="16" height="22" viewBox="0 0 16 22" fill="none" xmlns="http://www.w3.org/2000/svg">
<path d="M8.00095 0C3.95742 0 0.667603 3.28982 0.667603 7.33335C0.667603 8.54722 0.971091 9.75077 1.54803 10.8183L7.59992 21.7637C7.68049 21.9096 7.83402 22 8.00095 22C8.16788 22 8.32141 21.9096 8.40198 21.7637L14.4561 10.8147C15.0308 9.75077 15.3343 8.54717 15.3343 7.3333C15.3343 3.28982 12.0445 0 8.00095 0ZM8.00095 11C5.97918 11 4.3343 9.35511 4.3343 7.33335C4.3343 5.31158 5.97918 3.6667 8.00095 3.6667C10.0227 3.6667 11.6676 5.31158 11.6676 7.33335C11.6676 9.35511 10.0227 11 8.00095 11Z" fill="#4B4B4B"/>
</svg>
