<svg width="375" height="64" viewBox="0 0 375 64" fill="none" xmlns="http://www.w3.org/2000/svg">
<rect width="375" height="64" fill="url(#paint0_linear)"/>
<path d="M30.816 42.248C32.76 41.216 33.216 40.832 34.44 40.832C39.864 40.832 43.752 36.968 43.752 31.688C43.752 26.336 39.864 22.568 34.44 22.568C29.016 22.568 25.152 26.456 25.152 31.736C25.152 36.32 28.104 39.872 32.448 40.664L29.16 42.464C28.728 42.704 28.008 43.016 27.456 43.256C27.336 43.328 27.288 43.4 27.288 43.52C27.288 43.64 27.336 43.784 27.432 43.952C27.576 44.192 27.72 44.288 27.864 44.288C27.96 44.288 28.08 44.216 28.152 44.168C28.848 43.664 29.448 43.136 30.288 43.136C31.2 43.136 32.952 43.856 34.944 44.792C36.744 45.632 38.04 46.232 39.504 46.232C40.992 46.232 42.168 45.152 43.296 43.712C43.392 43.592 43.44 43.52 43.44 43.448C43.44 43.352 43.392 43.28 43.296 43.184C43.176 43.064 43.08 43.04 43.008 43.04C42.936 43.04 42.888 43.064 42.816 43.136C42.144 43.832 41.64 44.12 40.44 44.12C39.504 44.12 37.824 43.424 36.144 42.824C34.68 42.32 33.816 42.104 32.856 42.104C32.304 42.104 31.68 42.2 30.912 42.488L30.816 42.248ZM34.44 23.384C37.968 23.384 40.416 26.672 40.416 31.76C40.416 36.728 38.016 40.04 34.44 40.04C30.864 40.04 28.488 36.728 28.488 31.688C28.488 26.72 30.912 23.384 34.44 23.384Z" fill="black"/>
<defs>
<linearGradient id="paint0_linear" x1="187.5" y1="0" x2="187.5" y2="64" gradientUnits="userSpaceOnUse">
<stop stop-color="white"/>
<stop offset="1" stop-color="#ECECEC"/>
</linearGradient>
</defs>
</svg>
