<svg width="30" height="30" viewBox="0 0 30 30" fill="none" xmlns="http://www.w3.org/2000/svg">
<path d="M17.0171 9.80225C16.2855 9.80225 15.5791 10.0541 15.0007 10.5028C14.4223 10.0541 13.716 9.80225 12.9844 9.80225C11.1074 9.80225 9.58032 11.4171 9.58032 13.402C9.58032 13.9847 9.7152 14.5639 9.9695 15.0752C11.5862 18.3427 14.4351 20.0094 14.5556 20.0787C14.6934 20.1581 14.8471 20.1977 15.0008 20.1977C15.1545 20.1977 15.3082 20.1581 15.446 20.0787C15.5665 20.0094 18.4155 18.3426 20.0312 15.0769C20.2863 14.5639 20.4212 13.9848 20.4212 13.4021C20.4212 11.4171 18.8941 9.80225 17.0171 9.80225ZM18.4322 14.2837C17.4156 16.3385 15.7835 17.6769 15.0007 18.2356C14.2179 17.6768 12.5857 16.3381 11.5684 14.282C11.4354 14.0147 11.3651 13.7104 11.3651 13.4021C11.3651 12.4013 12.0915 11.5872 12.9844 11.5872C13.4887 11.5872 13.956 11.8451 14.2662 12.2947C14.4328 12.5361 14.7074 12.6802 15.0007 12.6802C15.294 12.6802 15.5686 12.5362 15.7352 12.2947C16.0455 11.8451 16.5127 11.5872 17.0171 11.5872C17.9099 11.5872 18.6363 12.4014 18.6363 13.4021C18.6363 13.7104 18.566 14.0146 18.4322 14.2837Z" fill="white"/>
<path d="M19.9179 0H10.0824C7.44976 0 5.30811 2.14177 5.30811 4.77426V6.96062V23.0393V25.2257C5.30811 27.8582 7.44987 29.9999 10.0824 29.9999H19.9179C22.5505 29.9999 24.6921 27.8582 24.6921 25.2257V23.0393V6.96062V4.77426C24.6922 2.14177 22.5505 0 19.9179 0ZM7.09292 4.77426C7.09292 3.12591 8.43401 1.78482 10.0824 1.78482H19.9179C21.5663 1.78482 22.9073 3.12591 22.9073 4.77426V6.06818H7.09292V4.77426ZM22.9074 25.2256C22.9074 26.874 21.5663 28.2151 19.9179 28.2151H10.0824C8.43395 28.2151 7.09292 26.874 7.09292 25.2256V23.9316H22.9074V25.2256ZM22.9074 22.1469H7.09292V7.853H22.9074V22.1469Z" fill="white"/>
<path d="M16.0477 25.0026H13.9523C13.4594 25.0026 13.0598 25.4021 13.0598 25.895C13.0598 26.3878 13.4594 26.7874 13.9523 26.7874H16.0477C16.5406 26.7874 16.9402 26.3879 16.9402 25.895C16.9401 25.4021 16.5406 25.0026 16.0477 25.0026Z" fill="white"/>
</svg>
