<svg width="22" height="22" viewBox="0 0 22 22" fill="none" xmlns="http://www.w3.org/2000/svg">
<path d="M16.1448 14.2005C17.2274 12.7221 17.8749 10.9062 17.8749 8.9376C17.8749 4.00965 13.8654 0.00012207 8.93744 0.00012207C4.00948 0.00012207 0 4.00965 0 8.9376C0 13.8656 4.00952 17.8751 8.93748 17.8751C10.9061 17.8751 12.7222 17.2274 14.2005 16.1449L20.0557 22L22 20.0557C22 20.0556 16.1448 14.2005 16.1448 14.2005ZM8.93748 15.1251C5.5255 15.1251 2.75001 12.3496 2.75001 8.9376C2.75001 5.52562 5.5255 2.75013 8.93748 2.75013C12.3495 2.75013 15.125 5.52562 15.125 8.9376C15.125 12.3496 12.3494 15.1251 8.93748 15.1251Z" fill="white"/>
</svg>
