<svg width="22" height="20" viewBox="0 0 22 20" fill="none" xmlns="http://www.w3.org/2000/svg">
<path d="M21.3544 19.6727H16.3934C13.7667 19.6727 11.3294 18.7507 9.53043 17.0764C6.54038 14.2936 7.58447 11.6988 6.45195 10.349C4.74689 12.5469 3.81457 15.2571 3.81457 18.0511V19.0279C3.81457 19.384 3.52585 19.6727 3.16973 19.6727H1.88004C1.52391 19.6727 1.23519 19.384 1.23519 19.0279V14.2153C1.23519 9.19563 -0.474763 8.80146 0.127866 5.49087C0.480725 3.55302 1.35071 1.87931 2.71378 0.516235C2.96557 0.264488 3.37389 0.264402 3.62572 0.516235C9.49063 6.38119 11.0774 11.1789 11.6748 12.985C12.0119 14.0038 12.8017 14.452 13.619 14.4851C14.3888 14.5157 15.1029 14.1523 15.5302 13.5114C15.7341 13.2055 16.1519 13.1324 16.4475 13.3487L21.7352 17.2178C21.9012 17.3392 21.9993 17.5326 21.9993 17.7382V19.0279C21.9992 19.384 21.7105 19.6727 21.3544 19.6727Z" fill="#4B4B4B"/>
</svg>
