<svg width="129" height="15" viewBox="0 0 129 15" fill="none" xmlns="http://www.w3.org/2000/svg">
<path d="M11.0213 4.856V1.184H10.7333C10.6973 1.352 10.6373 1.46 10.5533 1.508C10.4693 1.544 10.3433 1.562 10.1753 1.562C10.0193 1.562 9.82731 1.526 9.59931 1.454C9.37131 1.382 9.11331 1.31 8.82531 1.238C8.54931 1.154 8.24331 1.076 7.90731 1.004C7.58331 0.931999 7.22931 0.895999 6.84531 0.895999C6.07731 0.895999 5.29131 1.058 4.48731 1.382C3.69531 1.694 2.97531 2.144 2.32731 2.732C1.67931 3.32 1.14531 4.028 0.725313 4.856C0.317313 5.684 0.113313 6.608 0.113313 7.628C0.113313 8.564 0.299313 9.434 0.671313 10.238C1.04331 11.042 1.53531 11.744 2.14731 12.344C2.77131 12.932 3.49131 13.4 4.30731 13.748C5.12331 14.084 5.96931 14.252 6.84531 14.252C7.22931 14.252 7.59531 14.216 7.94331 14.144C8.29131 14.084 8.60931 14.018 8.89731 13.946C9.19731 13.862 9.46131 13.79 9.68931 13.73C9.91731 13.658 10.1033 13.622 10.2473 13.622C10.4153 13.622 10.5413 13.652 10.6253 13.712C10.7093 13.76 10.7813 13.856 10.8413 14H11.1293V10.184H10.8413C10.7333 10.676 10.5653 11.15 10.3373 11.606C10.1093 12.062 9.82731 12.47 9.49131 12.83C9.15531 13.178 8.76531 13.46 8.32131 13.676C7.88931 13.892 7.40331 14 6.86331 14C6.19131 14 5.60931 13.904 5.11731 13.712C4.63731 13.52 4.24131 13.184 3.92931 12.704C3.62931 12.224 3.40731 11.576 3.26331 10.76C3.11931 9.944 3.04731 8.912 3.04731 7.664C3.04731 6.716 3.08331 5.846 3.15531 5.054C3.22731 4.25 3.38931 3.56 3.64131 2.984C3.90531 2.408 4.28931 1.958 4.79331 1.634C5.29731 1.31 5.98731 1.148 6.86331 1.148C7.51131 1.148 8.05131 1.268 8.48331 1.508C8.92731 1.736 9.29331 2.036 9.58131 2.408C9.88131 2.768 10.1213 3.17 10.3013 3.614C10.4933 4.046 10.6553 4.46 10.7873 4.856H11.0213ZM27.6395 3.758L29.7635 8.672H25.6235L27.6395 3.758ZM21.7355 13.748V14H25.1375V13.748H23.5355L25.5335 8.924H29.8535L31.9415 13.748H30.2675V14H36.3155V13.748H34.7675L29.0975 0.68H28.6115L23.2475 13.748H21.7355ZM50.7398 6.998V1.436C50.8718 1.424 51.0038 1.412 51.1357 1.4C51.2678 1.388 51.3998 1.382 51.5318 1.382C51.9878 1.382 52.3598 1.442 52.6478 1.562C52.9478 1.682 53.1818 1.868 53.3498 2.12C53.5178 2.36 53.6378 2.672 53.7098 3.056C53.7818 3.428 53.8178 3.878 53.8178 4.406C53.8178 4.73 53.7938 5.048 53.7458 5.36C53.7098 5.672 53.6138 5.954 53.4578 6.206C53.3018 6.446 53.0678 6.638 52.7558 6.782C52.4438 6.926 52.0178 6.998 51.4778 6.998H50.7398ZM50.7398 13.748V7.25H51.7838C52.3838 7.25 52.8458 7.376 53.1698 7.628C53.5058 7.868 53.7518 8.156 53.9078 8.492C54.0758 8.828 54.1778 9.17 54.2138 9.518C54.2498 9.854 54.2678 10.124 54.2678 10.328C54.2678 11.06 54.2078 11.654 54.0878 12.11C53.9798 12.554 53.8178 12.902 53.6018 13.154C53.3858 13.406 53.1218 13.58 52.8098 13.676C52.5098 13.76 52.1678 13.802 51.7838 13.802C51.4118 13.802 51.0638 13.784 50.7398 13.748ZM48.1298 1.436V13.748H46.4738V14H49.1918C49.6958 14 50.1938 14.006 50.6858 14.018C51.1898 14.03 51.6938 14.036 52.1978 14.036C52.6538 14.036 53.1698 13.988 53.7458 13.892C54.3218 13.784 54.8618 13.598 55.3658 13.334C55.8818 13.07 56.3138 12.71 56.6618 12.254C57.0218 11.798 57.2018 11.222 57.2018 10.526C57.2018 9.89 57.0638 9.362 56.7878 8.942C56.5118 8.522 56.1638 8.186 55.7438 7.934C55.3238 7.67 54.8618 7.478 54.3578 7.358C53.8538 7.238 53.3678 7.16 52.8998 7.124V7.052C53.1878 7.016 53.5358 6.938 53.9438 6.818C54.3638 6.698 54.7658 6.524 55.1498 6.296C55.5338 6.068 55.8578 5.78 56.1218 5.432C56.3978 5.072 56.5358 4.634 56.5358 4.118C56.5358 3.542 56.3978 3.062 56.1218 2.678C55.8458 2.294 55.4918 1.988 55.0598 1.76C54.6398 1.532 54.1718 1.37 53.6558 1.274C53.1398 1.178 52.6478 1.13 52.1798 1.13C51.6758 1.13 51.1778 1.142 50.6858 1.166C50.1938 1.178 49.6958 1.184 49.1918 1.184H46.4738V1.436H48.1298ZM73.62 3.758L75.744 8.672H71.604L73.62 3.758ZM67.716 13.748V14H71.118V13.748H69.516L71.514 8.924H75.834L77.922 13.748H76.248V14H82.296V13.748H80.748L75.078 0.68H74.592L69.228 13.748H67.716ZM96.7202 6.998V1.436C96.8522 1.424 96.9842 1.412 97.1162 1.4C97.2482 1.388 97.3802 1.382 97.5122 1.382C97.9682 1.382 98.3402 1.442 98.6282 1.562C98.9282 1.682 99.1622 1.868 99.3302 2.12C99.4982 2.36 99.6182 2.672 99.6902 3.056C99.7622 3.428 99.7982 3.878 99.7982 4.406C99.7982 4.73 99.7742 5.048 99.7262 5.36C99.6902 5.672 99.5942 5.954 99.4382 6.206C99.2822 6.446 99.0482 6.638 98.7362 6.782C98.4242 6.926 97.9982 6.998 97.4582 6.998H96.7202ZM96.7202 13.748V7.25H97.7642C98.3642 7.25 98.8262 7.376 99.1502 7.628C99.4862 7.868 99.7322 8.156 99.8882 8.492C100.056 8.828 100.158 9.17 100.194 9.518C100.23 9.854 100.248 10.124 100.248 10.328C100.248 11.06 100.188 11.654 100.068 12.11C99.9602 12.554 99.7982 12.902 99.5822 13.154C99.3662 13.406 99.1022 13.58 98.7902 13.676C98.4902 13.76 98.1482 13.802 97.7642 13.802C97.3922 13.802 97.0442 13.784 96.7202 13.748ZM94.1102 1.436V13.748H92.4542V14H95.1722C95.6762 14 96.1742 14.006 96.6662 14.018C97.1702 14.03 97.6742 14.036 98.1782 14.036C98.6342 14.036 99.1502 13.988 99.7262 13.892C100.302 13.784 100.842 13.598 101.346 13.334C101.862 13.07 102.294 12.71 102.642 12.254C103.002 11.798 103.182 11.222 103.182 10.526C103.182 9.89 103.044 9.362 102.768 8.942C102.492 8.522 102.144 8.186 101.724 7.934C101.304 7.67 100.842 7.478 100.338 7.358C99.8342 7.238 99.3482 7.16 98.8802 7.124V7.052C99.1682 7.016 99.5162 6.938 99.9242 6.818C100.344 6.698 100.746 6.524 101.13 6.296C101.514 6.068 101.838 5.78 102.102 5.432C102.378 5.072 102.516 4.634 102.516 4.118C102.516 3.542 102.378 3.062 102.102 2.678C101.826 2.294 101.472 1.988 101.04 1.76C100.62 1.532 100.152 1.37 99.6362 1.274C99.1202 1.178 98.6282 1.13 98.1602 1.13C97.6562 1.13 97.1582 1.142 96.6662 1.166C96.1742 1.178 95.6762 1.184 95.1722 1.184H92.4542V1.436H94.1102ZM119.6 3.758L121.724 8.672H117.584L119.6 3.758ZM113.696 13.748V14H117.098V13.748H115.496L117.494 8.924H121.814L123.902 13.748H122.228V14H128.276V13.748H126.728L121.058 0.68H120.572L115.208 13.748H113.696Z" fill="url(#paint0_linear)"/>
<defs>
<linearGradient id="paint0_linear" x1="-5.57447" y1="14.4" x2="126.956" y2="29.5654" gradientUnits="userSpaceOnUse">
<stop stop-color="#B39B6D"/>
<stop offset="0.260417" stop-color="#6B5C3F"/>
<stop offset="0.505208" stop-color="#D1BA8C"/>
<stop offset="0.510417" stop-color="#D1BA8C"/>
<stop offset="0.703125" stop-color="#6B5C3F"/>
<stop offset="0.90625" stop-color="#D1BA8C"/>
</linearGradient>
</defs>
</svg>
